<?xml version="1.0" standalone="no"?>
<!DOCTYPE svg PUBLIC "-//W3C//DTD SVG 20010904//EN"
 "http://www.w3.org/TR/2001/REC-SVG-20010904/DTD/svg10.dtd">
<svg version="1.0" xmlns="http://www.w3.org/2000/svg"
 width="244.000000pt" height="244.000000pt" viewBox="0 0 244.000000 244.000000"
 preserveAspectRatio="xMidYMid meet">
<metadata>
Created by potrace 1.14, written by Peter Selinger 2001-2017
</metadata>
<g transform="translate(0.000000,244.000000) scale(0.100000,-0.100000)"
fill="#000000" stroke="none">
<path d="M912 2105 c-92 -20 -202 -78 -274 -145 -80 -73 -156 -198 -174 -285
-17 -88 -21 -123 -18 -182 l3 -69 -52 -1 c-63 -1 -111 -20 -161 -63 -58 -51
-80 -103 -80 -185 -1 -110 47 -184 148 -231 49 -23 55 -23 435 -24 212 0 386
-1 386 -3 1 -1 -27 -79 -63 -174 -55 -144 -63 -174 -52 -187 10 -13 39 -16
161 -16 82 0 149 -1 149 -3 0 -3 -39 -109 -100 -270 -28 -76 -49 -141 -45
-145 4 -4 23 11 43 34 74 81 200 221 252 279 29 33 60 67 69 76 9 9 29 31 45
50 16 19 44 51 63 72 27 31 32 41 23 57 -9 18 -24 20 -149 22 l-138 3 37 100
38 100 353 5 c324 5 357 7 385 24 89 54 89 190 1 245 -19 12 -47 21 -61 21
-22 0 -26 4 -22 18 11 32 9 137 -3 187 -18 74 -59 141 -123 200 -82 76 -145
99 -274 99 l-101 0 -23 50 c-43 95 -107 175 -190 238 -45 34 -145 83 -190 94
-19 4 -42 9 -50 11 -44 12 -192 10 -248 -2z"/>
</g>
</svg>
